<svg xmlns="http://www.w3.org/2000/svg" width="32" height="32" fill="none"><path fill="url(#a)" d="M29.635 18.712c.226.386.226.864 0 1.25l-1.607 2.845-1.966 3.47-1.966 3.47-.877 1.568c-.478.851-1.7.851-2.178.014l-.903-1.556-1.647-2.831a1.237 1.237 0 0 1 0-1.25l1.607-2.845 1.966-3.47 2.842-5.039c.478-.85 1.7-.85 2.179-.013l.903 1.555 1.647 2.832Z"/><path fill="url(#b)" d="M25.557 4.846c.24.412.24.917 0 1.33l-1.58 2.805-1.966 3.47-1.966 3.47-1.966 3.47-1.966 3.469-1.966 3.47-1.966 3.47-.372.665-.438.77c-.505.905-1.806.905-2.324.014l-.824-1.423-1.395-2.406a2.11 2.11 0 0 1 0-2.114 3.506 3.506 0 0 0-.026-3.483l-.545-.944-.451-.77-1.555-2.673-.451-.771-1.554-2.633-.067-.106a1.322 1.322 0 0 1 0-1.33l1.966-3.47 1.966-3.47 1.966-3.469.81-1.436a1.335 1.335 0 0 1 2.325-.013l.823 1.422 1.62 2.779c.24.412.24.917 0 1.33l-1.58 2.805-1.966 3.47-1.966 3.47-1.474 2.618a1.752 1.752 0 0 0 0 1.715l.637 1.09c.386.665 1.355.665 1.727 0l1.103-1.954 1.966-3.47 1.965-3.47 1.966-3.47 3.919-6.952.81-1.436A1.335 1.335 0 0 1 23.086.67l.824 1.423 1.62 2.778.027-.026Z"/><defs><linearGradient id="a" x1="24.063" x2="24.063" y1="13.698" y2="31.955" gradientUnits="userSpaceOnUse"><stop stop-color="#2196F3"/><stop offset="1" stop-color="#10519D"/></linearGradient><linearGradient id="b" x1="13.868" x2="13.868" y1="0" y2="31.915" gradientUnits="userSpaceOnUse"><stop stop-color="#2196F3"/><stop offset="1" stop-color="#10519D"/></linearGradient></defs></svg>