<svg width="32" height="32" viewBox="0 0 32 32" fill="none" xmlns="http://www.w3.org/2000/svg">
<path d="M29.6349 18.7121C29.8607 19.0977 29.8607 19.5763 29.6349 19.9618L28.0277 22.8068L26.0618 26.2767L24.096 29.7466L23.2193 31.3154C22.7411 32.1662 21.5191 32.1662 21.0409 31.3287L20.1377 29.7732L18.4906 26.9415C18.2648 26.5559 18.2648 26.0773 18.4906 25.6918L20.0979 22.8467L22.0637 19.3769L24.9062 14.3382C25.3844 13.4874 26.6064 13.4874 27.0846 14.3249L27.9878 15.8804L29.6349 18.7121Z" fill="url(#paint0_linear_307_45)"/>
<path d="M25.557 4.8459C25.7961 5.25803 25.7961 5.76323 25.557 6.17536L23.9764 8.98051L22.0105 12.4504L20.0447 15.9203L18.0788 19.3901L16.113 22.86L14.1471 26.3299L12.1813 29.7998L11.8093 30.4645L11.371 31.2356C10.8663 32.1396 9.56456 32.1396 9.04653 31.2489L8.22299 29.8264L6.8283 27.4201C6.45638 26.7686 6.4431 25.971 6.8283 25.3062C7.43931 24.2294 7.42602 22.8999 6.80173 21.8231L6.25714 20.8791L5.80552 20.1081L4.25143 17.4358L3.79982 16.6648L2.24573 14.0324L2.17932 13.9261C1.94023 13.514 1.94023 13.0088 2.17932 12.5966L4.14517 9.12675L6.11103 5.65687L8.07688 2.18699L8.88713 0.751179C9.39188 -0.152851 10.6936 -0.166145 11.2116 0.737885L12.0352 2.1604L13.6557 4.93896C13.8947 5.3511 13.8947 5.85629 13.6557 6.26842L12.075 9.07357L10.1091 12.5435L8.1433 16.0133L6.6689 18.6324C6.3634 19.1641 6.37668 19.8156 6.6689 20.3474L7.30648 21.4375C7.69168 22.1022 8.66132 22.1022 9.03324 21.4375L10.1357 19.4832L12.1016 16.0133L14.0674 12.5435L16.0333 9.07357L19.9517 2.12052L20.762 0.684706C21.2667 -0.219324 22.5684 -0.232618 23.0864 0.671412L23.91 2.09393L25.5305 4.87249L25.557 4.8459Z" fill="url(#paint1_linear_307_45)"/>
<defs>
<linearGradient id="paint0_linear_307_45" x1="24.0628" y1="13.6984" x2="24.0628" y2="31.9552" gradientUnits="userSpaceOnUse">
<stop stop-color="#2196F3"/>
<stop offset="1" stop-color="#10519D"/>
</linearGradient>
<linearGradient id="paint1_linear_307_45" x1="13.8682" y1="0" x2="13.8682" y2="31.9153" gradientUnits="userSpaceOnUse">
<stop stop-color="#2196F3"/>
<stop offset="1" stop-color="#10519D"/>
</linearGradient>
</defs>
</svg>
