<svg width="130" height="32" viewBox="0 0 130 32" fill="none" xmlns="http://www.w3.org/2000/svg">
<path d="M29.6349 18.7121C29.8607 19.0977 29.8607 19.5763 29.6349 19.9618L28.0277 22.8068L26.0618 26.2767L24.096 29.7466L23.2193 31.3154C22.7411 32.1662 21.5191 32.1662 21.0409 31.3287L20.1377 29.7732L18.4906 26.9415C18.2648 26.5559 18.2648 26.0773 18.4906 25.6918L20.0979 22.8467L22.0637 19.3769L24.9062 14.3382C25.3844 13.4874 26.6064 13.4874 27.0846 14.3249L27.9878 15.8804L29.6349 18.7121Z" fill="url(#paint0_linear_307_66)"/>
<path d="M25.557 4.8459C25.7961 5.25803 25.7961 5.76323 25.557 6.17536L23.9764 8.98051L22.0105 12.4504L20.0447 15.9203L18.0788 19.3901L16.113 22.86L14.1471 26.3299L12.1813 29.7998L11.8093 30.4645L11.371 31.2356C10.8663 32.1396 9.56456 32.1396 9.04653 31.2489L8.22299 29.8264L6.8283 27.4201C6.45638 26.7686 6.4431 25.971 6.8283 25.3062C7.43931 24.2294 7.42602 22.8999 6.80173 21.8231L6.25714 20.8791L5.80552 20.1081L4.25143 17.4358L3.79982 16.6648L2.24573 14.0324L2.17932 13.9261C1.94023 13.514 1.94023 13.0088 2.17932 12.5966L4.14517 9.12675L6.11103 5.65687L8.07688 2.18699L8.88713 0.751179C9.39188 -0.152851 10.6936 -0.166145 11.2116 0.737885L12.0352 2.1604L13.6557 4.93896C13.8947 5.3511 13.8947 5.85629 13.6557 6.26842L12.075 9.07357L10.1091 12.5435L8.1433 16.0133L6.6689 18.6324C6.3634 19.1641 6.37668 19.8156 6.6689 20.3474L7.30648 21.4375C7.69168 22.1022 8.66132 22.1022 9.03324 21.4375L10.1357 19.4832L12.1016 16.0133L14.0674 12.5435L16.0333 9.07357L19.9517 2.12052L20.762 0.684706C21.2667 -0.219324 22.5684 -0.232618 23.0864 0.671412L23.91 2.09393L25.5305 4.87249L25.557 4.8459Z" fill="url(#paint1_linear_307_66)"/>
<path d="M44.8658 25.7725C43.467 25.7725 42.259 25.4818 41.2417 24.9005C40.2305 24.3132 39.4524 23.4836 38.9074 22.4118C38.3624 21.334 38.0899 20.0654 38.0899 18.6061C38.0899 17.171 38.3624 15.9115 38.9074 14.8276C39.4584 13.7377 40.2274 12.89 41.2144 12.2844C42.2015 11.6729 43.361 11.3671 44.6932 11.3671C45.553 11.3671 46.3644 11.5063 47.1274 11.7849C47.8964 12.0574 48.5746 12.4812 49.162 13.0565C49.7554 13.6317 50.2216 14.3644 50.5607 15.2545C50.8998 16.1386 51.0694 17.1922 51.0694 18.4154V19.4236H39.634V17.2073H47.9176C47.9115 16.5776 47.7753 16.0175 47.5089 15.527C47.2424 15.0305 46.87 14.6399 46.3917 14.3553C45.9194 14.0707 45.3683 13.9284 44.7386 13.9284C44.0665 13.9284 43.4761 14.0919 42.9674 14.4189C42.4588 14.7398 42.0622 15.1637 41.7776 15.6905C41.499 16.2113 41.3567 16.7835 41.3507 17.4072V19.3418C41.3507 20.1532 41.499 20.8496 41.7958 21.4309C42.0925 22.0061 42.5072 22.4482 43.0401 22.757C43.573 23.0597 44.1967 23.2111 44.9112 23.2111C45.3895 23.2111 45.8225 23.1445 46.21 23.0113C46.5976 22.872 46.9336 22.6692 47.2182 22.4027C47.5028 22.1363 47.7178 21.8063 47.8631 21.4127L50.9331 21.7579C50.7393 22.5693 50.37 23.2777 49.825 23.8833C49.2861 24.4827 48.5958 24.949 47.7541 25.282C46.9124 25.609 45.9496 25.7725 44.8658 25.7725ZM55.9727 25.5L50.7228 6.8983H54.3469L57.6985 20.568H57.8711L61.4497 6.8983H64.7468L68.3345 20.5771H68.498L71.8496 6.8983H75.4736L70.2237 25.5H66.8994L63.1754 12.4479H63.0301L59.2971 25.5H55.9727ZM79.6163 25.7816C78.7323 25.7816 77.936 25.6241 77.2275 25.3093C76.5251 24.9883 75.9681 24.516 75.5563 23.8923C75.1506 23.2686 74.9477 22.4996 74.9477 21.5853C74.9477 20.7981 75.0931 20.1472 75.3837 19.6325C75.6744 19.1178 76.071 18.706 76.5736 18.3972C77.0762 18.0884 77.6423 17.8553 78.2721 17.6978C78.9079 17.5343 79.5649 17.4163 80.2431 17.3436C81.0605 17.2588 81.7236 17.1831 82.2322 17.1165C82.7408 17.0439 83.1102 16.9349 83.3403 16.7895C83.5765 16.6382 83.6945 16.405 83.6945 16.0902V16.0357C83.6945 15.3514 83.4917 14.8216 83.086 14.4462C82.6803 14.0707 82.096 13.883 81.333 13.883C80.5277 13.883 79.8888 14.0586 79.4165 14.4098C78.9503 14.761 78.6354 15.1758 78.4719 15.6542L75.4019 15.2182C75.6441 14.3705 76.0437 13.662 76.6008 13.0928C77.1579 12.5176 77.8391 12.0876 78.6445 11.803C79.4498 11.5124 80.3399 11.3671 81.3148 11.3671C81.987 11.3671 82.6561 11.4458 83.3221 11.6032C83.9882 11.7607 84.5968 12.021 85.1478 12.3843C85.6988 12.7416 86.1409 13.2291 86.4739 13.8467C86.813 14.4643 86.9825 15.2364 86.9825 16.1628V25.5H83.8217V23.5835H83.7127C83.5129 23.9711 83.2313 24.3344 82.868 24.6735C82.5107 25.0065 82.0596 25.276 81.5147 25.4818C80.9757 25.6817 80.343 25.7816 79.6163 25.7816ZM80.4701 23.3655C81.1301 23.3655 81.7024 23.2353 82.1868 22.975C82.6712 22.7085 83.0436 22.3573 83.304 21.9214C83.5704 21.4854 83.7036 21.01 83.7036 20.4953V18.8513C83.6007 18.9361 83.4251 19.0148 83.1768 19.0875C82.9346 19.1602 82.6621 19.2237 82.3594 19.2782C82.0566 19.3327 81.7569 19.3812 81.4602 19.4236C81.1635 19.466 80.9061 19.5023 80.6881 19.5326C80.1976 19.5992 79.7586 19.7082 79.3711 19.8595C78.9836 20.0109 78.6778 20.2229 78.4537 20.4953C78.2297 20.7618 78.1177 21.1069 78.1177 21.5308C78.1177 22.1363 78.3387 22.5935 78.7807 22.9023C79.2227 23.2111 79.7859 23.3655 80.4701 23.3655ZM100.676 15.2364L97.6785 15.5633C97.5937 15.2606 97.4454 14.976 97.2335 14.7096C97.0276 14.4431 96.749 14.2282 96.3978 14.0647C96.0466 13.9012 95.6167 13.8194 95.1081 13.8194C94.4238 13.8194 93.8486 13.9678 93.3823 14.2645C92.9221 14.5612 92.6951 14.9457 92.7011 15.418C92.6951 15.8237 92.8434 16.1537 93.1462 16.4081C93.455 16.6624 93.9636 16.8713 94.6721 17.0348L97.0518 17.5434C98.3718 17.828 99.3528 18.2791 99.9946 18.8968C100.643 19.5144 100.97 20.3228 100.976 21.3219C100.97 22.1999 100.712 22.975 100.204 23.6471C99.701 24.3132 99.0016 24.8339 98.1054 25.2093C97.2092 25.5848 96.1798 25.7725 95.0172 25.7725C93.3097 25.7725 91.9351 25.4152 90.8936 24.7007C89.8521 23.9801 89.2315 22.978 89.0316 21.6943L92.2379 21.3855C92.3832 22.0152 92.692 22.4905 93.1643 22.8115C93.6366 23.1324 94.2513 23.2929 95.0082 23.2929C95.7893 23.2929 96.416 23.1324 96.8883 22.8115C97.3667 22.4905 97.6059 22.0939 97.6059 21.6216C97.6059 21.222 97.4514 20.892 97.1426 20.6316C96.8399 20.3712 96.3676 20.1714 95.7257 20.0321L93.346 19.5326C92.0078 19.254 91.0178 18.7847 90.3759 18.1247C89.734 17.4586 89.4161 16.617 89.4222 15.5997C89.4161 14.7398 89.6493 13.995 90.1216 13.3653C90.5999 12.7295 91.263 12.239 92.1107 11.8939C92.9645 11.5427 93.9485 11.3671 95.0627 11.3671C96.6976 11.3671 97.9843 11.7152 98.9229 12.4116C99.8675 13.1079 100.452 14.0495 100.676 15.2364ZM105.091 30.7317C104.643 30.7317 104.228 30.6954 103.847 30.6227C103.471 30.5561 103.172 30.4774 102.947 30.3866L103.71 27.8252C104.189 27.9645 104.616 28.0311 104.991 28.025C105.367 28.019 105.697 27.9009 105.981 27.6708C106.272 27.4468 106.517 27.0713 106.717 26.5445L106.998 25.7907L101.939 11.5487H105.427L108.642 22.0848H108.788L112.012 11.5487H115.509L109.923 27.1894C109.663 27.9282 109.318 28.5609 108.888 29.0877C108.458 29.6206 107.931 30.0263 107.307 30.3048C106.69 30.5894 105.951 30.7317 105.091 30.7317ZM120.76 25.7816C119.876 25.7816 119.08 25.6241 118.371 25.3093C117.669 24.9883 117.112 24.516 116.7 23.8923C116.294 23.2686 116.091 22.4996 116.091 21.5853C116.091 20.7981 116.237 20.1472 116.527 19.6325C116.818 19.1178 117.215 18.706 117.717 18.3972C118.22 18.0884 118.786 17.8553 119.416 17.6978C120.051 17.5343 120.708 17.4163 121.387 17.3436C122.204 17.2588 122.867 17.1831 123.376 17.1165C123.884 17.0439 124.254 16.9349 124.484 16.7895C124.72 16.6382 124.838 16.405 124.838 16.0902V16.0357C124.838 15.3514 124.635 14.8216 124.23 14.4462C123.824 14.0707 123.24 13.883 122.477 13.883C121.671 13.883 121.032 14.0586 120.56 14.4098C120.094 14.761 119.779 15.1758 119.615 15.6542L116.545 15.2182C116.788 14.3705 117.187 13.662 117.744 13.0928C118.301 12.5176 118.983 12.0876 119.788 11.803C120.593 11.5124 121.483 11.3671 122.458 11.3671C123.131 11.3671 123.8 11.4458 124.466 11.6032C125.132 11.7607 125.74 12.021 126.291 12.3843C126.842 12.7416 127.284 13.2291 127.617 13.8467C127.957 14.4643 128.126 15.2364 128.126 16.1628V25.5H124.965V23.5835H124.856C124.656 23.9711 124.375 24.3344 124.012 24.6735C123.654 25.0065 123.203 25.276 122.658 25.4818C122.119 25.6817 121.487 25.7816 120.76 25.7816ZM121.614 23.3655C122.274 23.3655 122.846 23.2353 123.33 22.975C123.815 22.7085 124.187 22.3573 124.448 21.9214C124.714 21.4854 124.847 21.01 124.847 20.4953V18.8513C124.744 18.9361 124.569 19.0148 124.32 19.0875C124.078 19.1602 123.806 19.2237 123.503 19.2782C123.2 19.3327 122.9 19.3812 122.604 19.4236C122.307 19.466 122.05 19.5023 121.832 19.5326C121.341 19.5992 120.902 19.7082 120.515 19.8595C120.127 20.0109 119.821 20.2229 119.597 20.4953C119.373 20.7618 119.261 21.1069 119.261 21.5308C119.261 22.1363 119.482 22.5935 119.924 22.9023C120.366 23.2111 120.929 23.3655 121.614 23.3655Z" fill="white"/>
<defs>
<linearGradient id="paint0_linear_307_66" x1="24.0628" y1="13.6984" x2="24.0628" y2="31.9552" gradientUnits="userSpaceOnUse">
<stop stop-color="#2196F3"/>
<stop offset="1" stop-color="#10519D"/>
</linearGradient>
<linearGradient id="paint1_linear_307_66" x1="13.8682" y1="0" x2="13.8682" y2="31.9153" gradientUnits="userSpaceOnUse">
<stop stop-color="#2196F3"/>
<stop offset="1" stop-color="#10519D"/>
</linearGradient>
</defs>
</svg>
